<svg width="24" height="26" viewBox="0 0 24 26" fill="none" xmlns="http://www.w3.org/2000/svg">
<path d="M15.7504 6.7502L7.62536 14.8752C7.12808 15.3725 6.84871 16.0469 6.84871 16.7502C6.84871 17.4535 7.12808 18.1279 7.62536 18.6252C8.12264 19.1225 8.7971 19.4019 9.50036 19.4019C10.2036 19.4019 10.8781 19.1225 11.3754 18.6252L19.5004 10.5002C20.4949 9.50564 21.0537 8.15672 21.0537 6.7502C21.0537 5.34368 20.4949 3.99476 19.5004 3.0002C18.5058 2.00564 17.1569 1.4469 15.7504 1.4469C14.3438 1.4469 12.9949 2.00564 12.0004 3.0002L3.87536 11.1252C2.38352 12.617 1.54541 14.6404 1.54541 16.7502C1.54541 18.86 2.38352 20.8834 3.87536 22.3752C5.3672 23.867 7.39058 24.7052 9.50036 24.7052C11.6101 24.7052 13.6335 23.867 15.1254 22.3752L23.2504 14.2502" stroke="#15162F" stroke-width="1.5" stroke-linecap="round" stroke-linejoin="round"/>
</svg>
